<svg width="7" height="12" viewBox="0 0 7 12" fill="none" xmlns="http://www.w3.org/2000/svg">
<path d="M4.63581 4.73923C3.5465 4.29188 3.46222 4.09966 3.46222 3.87684C3.46222 3.73453 3.53291 3.40368 4.18718 3.40368C4.78573 3.40368 5.53154 3.73966 6.05752 4.0859L6.78923 2.16795C6.26684 1.83539 5.63197 1.54966 5.03838 1.45829V0.211029H3.08744V1.57966C1.92846 1.94496 1.21428 2.87146 1.21428 4.02479C1.21428 5.55231 2.43633 6.23428 3.63 6.69915C4.58368 7.08282 4.66359 7.3765 4.66359 7.62171C4.66359 7.99889 4.31599 8.24257 3.77804 8.24257C3.07658 8.24257 2.26094 7.83795 1.68992 7.39522L0.985901 9.34393C1.56812 9.79539 2.24214 10.0933 3.00051 10.2045V11.4969H4.96359V10.0901C6.15881 9.70949 6.92376 8.71932 6.92376 7.53539C6.92376 5.87812 5.70111 5.1706 4.63581 4.73923Z" fill="#C1BBEB"/>
</svg>
