<svg width="40" height="40" viewBox="0 0 40 40" fill="none" xmlns="http://www.w3.org/2000/svg">
<path d="M26.1758 10.875C26.1758 11.2187 26.1524 11.5625 26.1094 11.9023C26.1289 11.7656 26.1485 11.625 26.1641 11.4883C26.0703 12.168 25.8906 12.8281 25.6289 13.4609C25.6797 13.3359 25.7344 13.2109 25.7852 13.0859C25.5235 13.7031 25.1875 14.2812 24.7774 14.8125C24.8594 14.707 24.9414 14.6016 25.0235 14.4961C24.6172 15.0195 24.1446 15.4922 23.6211 15.8984C23.7266 15.8164 23.832 15.7344 23.9375 15.6523C23.4063 16.0586 22.8281 16.3984 22.211 16.6601C22.336 16.6094 22.461 16.5547 22.586 16.5039C21.9531 16.7656 21.293 16.9453 20.6133 17.0391C20.75 17.0195 20.8906 17 21.0274 16.9844C20.3438 17.0742 19.6563 17.0742 18.9727 16.9844C19.1094 17.0039 19.25 17.0234 19.3867 17.0391C18.707 16.9453 18.0469 16.7656 17.4141 16.5039C17.5391 16.5547 17.6641 16.6094 17.7891 16.6601C17.1719 16.3984 16.5938 16.0625 16.0625 15.6523C16.168 15.7344 16.2734 15.8164 16.3789 15.8984C15.8555 15.4922 15.3828 15.0195 14.9766 14.4961C15.0586 14.6016 15.1406 14.707 15.2227 14.8125C14.8164 14.2812 14.4766 13.7031 14.2149 13.0859C14.2656 13.2109 14.3203 13.3359 14.3711 13.4609C14.1094 12.8281 13.9297 12.168 13.8359 11.4883C13.8555 11.625 13.875 11.7656 13.8906 11.9023C13.8008 11.2187 13.8008 10.5312 13.8906 9.84765C13.8711 9.98437 13.8516 10.125 13.8359 10.2617C13.9297 9.58202 14.1094 8.92187 14.3711 8.28905C14.3203 8.41405 14.2656 8.53905 14.2149 8.66405C14.4766 8.04687 14.8125 7.46874 15.2227 6.93749C15.1406 7.04296 15.0586 7.14843 14.9766 7.2539C15.3828 6.73046 15.8555 6.2578 16.3789 5.85155C16.2734 5.93359 16.168 6.01562 16.0625 6.09765C16.5938 5.6914 17.1719 5.35155 17.7891 5.08984C17.6641 5.14062 17.5391 5.1953 17.4141 5.24609C18.0469 4.98437 18.707 4.80468 19.3867 4.71093C19.25 4.73046 19.1094 4.74999 18.9727 4.76562C19.6563 4.67577 20.3438 4.67577 21.0274 4.76562C20.8906 4.74609 20.75 4.72655 20.6133 4.71093C21.293 4.80468 21.9531 4.98437 22.586 5.24609C22.461 5.1953 22.336 5.14062 22.211 5.08984C22.8281 5.35155 23.4063 5.68749 23.9375 6.09765C23.832 6.01562 23.7266 5.93359 23.6211 5.85155C24.1446 6.2578 24.6172 6.73046 25.0235 7.2539C24.9414 7.14843 24.8594 7.04296 24.7774 6.93749C25.1836 7.46874 25.5235 8.04687 25.7852 8.66405C25.7344 8.53905 25.6797 8.41405 25.6289 8.28905C25.8906 8.92187 26.0703 9.58202 26.1641 10.2617C26.1445 10.125 26.125 9.98437 26.1094 9.84765C26.1524 10.1875 26.1719 10.5312 26.1758 10.875C26.1797 11.6914 26.8906 12.4766 27.7383 12.4375C28.5821 12.3984 29.3047 11.75 29.3008 10.875C29.293 9.0039 28.7305 7.08984 27.6289 5.5664C27.3321 5.15624 27.0156 4.7539 26.6641 4.39062C26.3086 4.02343 25.918 3.70702 25.5117 3.39843C24.7735 2.83593 23.9492 2.42187 23.0742 2.10155C19.5469 0.808586 15.293 1.96093 12.9063 4.86718C12.5781 5.26562 12.2656 5.67968 12 6.12499C11.7344 6.5664 11.5273 7.03515 11.3359 7.51171C10.9766 8.39452 10.793 9.33202 10.7188 10.2812C10.5742 12.1406 11.0586 14.082 12.0273 15.6758C12.9609 17.2148 14.3711 18.5351 16.0195 19.2812C16.5039 19.5 17 19.7031 17.5156 19.8476C18.0274 19.9883 18.5469 20.0664 19.0742 20.1289C20.0352 20.2422 21.0156 20.1641 21.9649 19.9726C25.5703 19.2383 28.5899 16.1328 29.1485 12.4883C29.2305 11.957 29.293 11.4258 29.293 10.8867C29.2969 10.0703 28.5703 9.28515 27.7305 9.32421C26.8867 9.35155 26.1758 9.99999 26.1758 10.875ZM31.3594 35.3008C30.5938 35.3008 29.8281 35.3008 29.0625 35.3008C27.2383 35.3008 25.418 35.3008 23.5938 35.3008C21.3985 35.3008 19.2031 35.3008 17.0039 35.3008C15.1094 35.3008 13.2149 35.3008 11.3164 35.3008C10.4297 35.3008 9.54297 35.3086 8.65625 35.3008C8.5586 35.3008 8.46094 35.293 8.36719 35.2812C8.50391 35.3008 8.64453 35.3203 8.78125 35.3359C8.625 35.3125 8.47657 35.2695 8.33203 35.2109C8.45703 35.2617 8.58203 35.3164 8.70703 35.3672C8.55078 35.3008 8.40625 35.2148 8.26953 35.1094C8.375 35.1914 8.48047 35.2734 8.58594 35.3555C8.46875 35.2578 8.35938 35.1523 8.26563 35.0351C8.34766 35.1406 8.42969 35.2461 8.51172 35.3516C8.40625 35.2148 8.32422 35.0703 8.25391 34.9141C8.30469 35.0391 8.35938 35.1641 8.41016 35.2891C8.35157 35.1445 8.3125 34.9922 8.28516 34.8398C8.30469 34.9766 8.32422 35.1172 8.33985 35.2539C8.27735 34.7812 8.32031 34.2812 8.32031 33.8047C8.32031 33.2461 8.32031 32.6914 8.32031 32.1328C8.32031 31.7148 8.34375 31.3008 8.39844 30.8867C8.37891 31.0234 8.35938 31.1641 8.34375 31.3008C8.45313 30.5 8.66407 29.7148 8.98047 28.9687C8.92969 29.0937 8.875 29.2187 8.82422 29.3437C9.12891 28.6328 9.51954 27.9648 9.99219 27.3516C9.91016 27.457 9.82813 27.5625 9.7461 27.668C10.2188 27.0625 10.7617 26.5156 11.3711 26.043C11.2656 26.125 11.1602 26.207 11.0547 26.2891C11.668 25.8164 12.3359 25.4258 13.0469 25.1211C12.9219 25.1719 12.7969 25.2266 12.6719 25.2773C13.418 24.9648 14.1992 24.75 15.0039 24.6406C14.8672 24.6601 14.7266 24.6797 14.5899 24.6953C15.168 24.6211 15.7422 24.6172 16.3242 24.6172C17.0391 24.6172 17.7539 24.6172 18.4688 24.6172C20.1367 24.6172 21.8047 24.6172 23.4727 24.6172C24.1172 24.6172 24.7578 24.6133 25.4024 24.6953C25.2656 24.6758 25.125 24.6562 24.9883 24.6406C25.7891 24.75 26.5742 24.9609 27.3203 25.2773C27.1953 25.2266 27.0703 25.1719 26.9453 25.1211C27.6563 25.4258 28.3242 25.8164 28.9375 26.2891C28.8321 26.207 28.7266 26.125 28.6211 26.043C29.2266 26.5156 29.7735 27.0586 30.2461 27.668C30.1641 27.5625 30.0821 27.457 30 27.3516C30.4727 27.9648 30.8633 28.6328 31.168 29.3437C31.1172 29.2187 31.0625 29.0937 31.0117 28.9687C31.3242 29.7148 31.5391 30.4961 31.6485 31.3008C31.6289 31.1641 31.6094 31.0234 31.5938 30.8867C31.668 31.4766 31.6719 32.0625 31.6719 32.6562C31.6719 33.3008 31.6719 33.9453 31.6719 34.5898C31.6719 34.8125 31.6797 35.0351 31.6524 35.2539C31.6719 35.1172 31.6914 34.9766 31.7071 34.8398C31.6836 34.9961 31.6406 35.1445 31.5821 35.2891C31.6328 35.1641 31.6875 35.0391 31.7383 34.9141C31.6719 35.0703 31.586 35.2148 31.4805 35.3516C31.5625 35.2461 31.6446 35.1406 31.7266 35.0351C31.6289 35.1523 31.5235 35.2617 31.4063 35.3555C31.5117 35.2734 31.6172 35.1914 31.7227 35.1094C31.586 35.2148 31.4414 35.2969 31.2852 35.3672C31.4102 35.3164 31.5352 35.2617 31.6602 35.2109C31.5156 35.2695 31.3633 35.3086 31.211 35.3359C31.3477 35.3164 31.4883 35.2969 31.625 35.2812C31.5391 35.293 31.4492 35.2969 31.3594 35.3008C30.9571 35.3047 30.543 35.4726 30.2539 35.7578C29.9844 36.0273 29.7774 36.4726 29.7969 36.8633C29.836 37.6992 30.4844 38.4375 31.3594 38.4258C32.8789 38.4023 34.2149 37.4101 34.6602 35.9531C34.836 35.375 34.7969 34.7539 34.7969 34.1601C34.7969 32.8008 34.8399 31.4531 34.6055 30.1055C34.2617 28.1328 33.2696 26.2773 31.9102 24.8203C30.5508 23.3633 28.7227 22.293 26.7891 21.8164C25.6797 21.543 24.5625 21.5 23.4297 21.5C22.2656 21.5 21.1055 21.5 19.9414 21.5C18.793 21.5 17.6484 21.5 16.5 21.5C15.3399 21.5 14.1875 21.5547 13.0586 21.8555C11.1406 22.3633 9.33594 23.4453 8.00391 24.9141C6.66016 26.3945 5.6875 28.2539 5.37109 30.2383C5.16016 31.5703 5.20312 32.9062 5.20312 34.25C5.20312 34.8672 5.16797 35.5117 5.39062 36.1016C5.67969 36.8594 6.14063 37.457 6.81641 37.9062C7.34375 38.2539 8.01172 38.4219 8.63672 38.4297C8.94141 38.4336 9.2461 38.4297 9.55079 38.4297C10.332 38.4297 11.1094 38.4297 11.8906 38.4297C13 38.4297 14.1055 38.4297 15.2149 38.4297C16.5039 38.4297 17.793 38.4297 19.082 38.4297C20.4063 38.4297 21.7266 38.4297 23.0508 38.4297C24.2617 38.4297 25.4688 38.4297 26.6797 38.4297C27.6289 38.4297 28.5781 38.4297 29.5235 38.4297C30.0664 38.4297 30.6094 38.4297 31.1524 38.4297C31.2227 38.4297 31.293 38.4297 31.3633 38.4297C32.1797 38.4297 32.9649 37.7109 32.9258 36.8672C32.8867 36.0156 32.2383 35.3008 31.3594 35.3008Z" fill="#C1BBEB"/>
</svg>
