<svg width="32" height="32" viewBox="0 0 32 32" fill="none" xmlns="http://www.w3.org/2000/svg">
<path d="M12.2627 2.66667L11.4163 6.46615C10.935 6.69779 10.4748 6.96458 10.0335 7.26563L6.31999 6.09636L2.58301 12.5703L5.39811 15.1484C5.28813 15.9648 5.33794 16.3672 5.39811 16.8516L2.58301 19.4297L6.31999 25.9037L10.0335 24.7344C10.4748 25.0354 10.935 25.3022 11.4163 25.5339L12.2627 29.3333H19.7367L20.583 25.5339C21.0644 25.3022 21.5245 25.0354 21.9658 24.7344L25.6794 25.9037L29.4163 19.4297L26.6012 16.8516C26.6242 16.5682 26.6661 16.2845 26.6663 16C26.6674 15.7069 26.6212 15.4108 26.6012 15.1484L29.4163 12.5703L25.6794 6.09636L21.9658 7.26563C21.5245 6.96458 21.0644 6.69779 20.583 6.46615L19.7367 2.66667H12.2627ZM14.4033 5.33334H17.596L18.2549 8.29167L18.9163 8.55209C19.6646 8.84512 20.364 9.24846 20.9919 9.75001L21.5492 10.1927L24.4398 9.28386L26.0361 12.0495L23.8018 14.099L23.9085 14.8021C24.0342 15.5797 24.0098 16.4746 23.9085 17.1979L23.8018 17.901L26.0361 19.9505L24.4398 22.7162L21.5492 21.8073L20.9919 22.25C20.364 22.7516 19.6646 23.1549 18.9163 23.4479L18.2549 23.7083L17.596 26.6667H14.4033L13.7445 23.7083L13.083 23.4479C12.3348 23.1549 11.6353 22.7516 11.0075 22.25L10.4502 21.8073L7.55957 22.7162L5.96322 19.9505L8.19759 17.901L8.09082 17.1979C7.96059 16.4046 7.98058 15.4967 8.09082 14.8021L8.19759 14.099L5.96322 12.0495L7.55957 9.28386L10.4502 10.1927L11.0075 9.75001C11.6353 9.24846 12.3348 8.84512 13.083 8.55209L13.7445 8.29167L14.4033 5.33334ZM15.9997 10.6667C13.0699 10.6667 10.6663 13.0703 10.6663 16C10.6663 18.9297 13.0699 21.3333 15.9997 21.3333C18.9294 21.3333 21.333 18.9297 21.333 16C21.333 13.0703 18.9294 10.6667 15.9997 10.6667ZM15.9997 13.3333C17.4882 13.3333 18.6663 14.5115 18.6663 16C18.6663 17.4886 17.4882 18.6667 15.9997 18.6667C14.5111 18.6667 13.333 17.4886 13.333 16C13.333 14.5115 14.5111 13.3333 15.9997 13.3333Z" fill="#A098AE"/>
</svg>
