<svg width="26" height="29" viewBox="0 0 26 29" fill="none" xmlns="http://www.w3.org/2000/svg">
<path d="M7.24425 28.2002C5.95693 28.1974 4.69927 27.8294 3.62981 27.1425C2.56035 26.4555 1.72696 25.4804 1.23471 24.3401C0.74246 23.1997 0.613381 21.9452 0.863744 20.7346C1.11411 19.5241 1.73271 18.4117 2.64156 17.5377L13.6985 6.92515C14.0623 6.57633 14.4943 6.29963 14.9697 6.11085C15.4451 5.92206 15.9546 5.8249 16.4692 5.8249C16.9838 5.8249 17.4933 5.92206 17.9687 6.11085C18.4441 6.29963 18.8761 6.57633 19.2399 6.92515C19.6038 7.27398 19.8924 7.68809 20.0894 8.14385C20.2863 8.59961 20.3876 9.08809 20.3876 9.5814C20.3876 10.0747 20.2863 10.5632 20.0894 11.019C19.8924 11.4747 19.6038 11.8888 19.2399 12.2377L8.17001 22.8377C8.05312 22.9685 7.90928 23.0748 7.74751 23.1498C7.58575 23.2248 7.40955 23.267 7.22998 23.2737C7.05041 23.2803 6.87135 23.2513 6.70403 23.1885C6.53671 23.1256 6.38474 23.0303 6.25767 22.9085C6.1306 22.7866 6.03117 22.641 5.96562 22.4806C5.90007 22.3202 5.86981 22.1485 5.87675 21.9763C5.88368 21.8042 5.92766 21.6353 6.00592 21.4802C6.08419 21.3251 6.19505 21.1872 6.33154 21.0752L17.3884 10.4627C17.602 10.2235 17.7137 9.91593 17.701 9.60134C17.6883 9.28674 17.5523 8.98832 17.3201 8.7657C17.0878 8.54308 16.7766 8.41267 16.4484 8.40051C16.1203 8.38836 15.7994 8.49537 15.55 8.70015L4.48003 19.3002C3.74518 20.0046 3.33235 20.9601 3.33235 21.9564C3.33235 22.9527 3.74518 23.9082 4.48003 24.6127C5.21488 25.3171 6.21154 25.7129 7.25077 25.7129C8.29 25.7129 9.28667 25.3171 10.0215 24.6127L21.0784 14.0002C22.266 12.8214 22.9231 11.2426 22.9082 9.6039C22.8934 7.96517 22.2077 6.39759 20.999 5.23879C19.7902 4.07999 18.1551 3.42268 16.4457 3.40844C14.7364 3.3942 13.0896 4.02417 11.86 5.16265L5.40578 11.4127C5.16149 11.6455 4.83102 11.7761 4.48655 11.7761C4.14208 11.7761 3.81161 11.6455 3.56731 11.4127C3.4451 11.2965 3.3481 11.1582 3.2819 11.0059C3.21571 10.8536 3.18163 10.6902 3.18163 10.5252C3.18163 10.3601 3.21571 10.1968 3.2819 10.0444C3.3481 9.89211 3.4451 9.75386 3.56731 9.63765L10.0215 3.38765C11.7333 1.74663 14.0549 0.824707 16.4757 0.824707C18.8965 0.824707 21.2182 1.74663 22.9299 3.38765C24.6417 5.02868 25.6033 7.25439 25.6033 9.57515C25.6033 11.8959 24.6417 14.1216 22.9299 15.7627L11.86 26.3752C11.2534 26.9552 10.5336 27.4149 9.74158 27.7281C8.94958 28.0412 8.10097 28.2016 7.24425 28.2002Z" fill="#A098AE"/>
</svg>
